<?xml version="1.0" encoding="UTF-8" standalone="no"?>
<!DOCTYPE svg PUBLIC "-//W3C//DTD SVG 1.1//EN"
 "http://www.w3.org/Graphics/SVG/1.1/DTD/svg11.dtd">
<!-- Generated by graphviz version 2.49.3 (20211023.0002)
 -->
<!-- Title: controllers_diagram Pages: 1 -->
<svg width="751pt" height="693pt"
 viewBox="0.00 0.00 751.00 693.00" xmlns="http://www.w3.org/2000/svg" xmlns:xlink="http://www.w3.org/1999/xlink">
<g id="graph0" class="graph" transform="scale(1 1) rotate(0) translate(4 689)">
<title>controllers_diagram</title>
<polygon fill="transparent" stroke="transparent" points="-4,4 -4,-689 747,-689 747,4 -4,4"/>
<!-- _diagram_info -->
<g id="node1" class="node">
<title>_diagram_info</title>
<text text-anchor="start" x="27" y="-101.6" font-family="Times,serif" font-size="13.00">Controllers diagram</text>
<text text-anchor="start" x="27" y="-87.6" font-family="Times,serif" font-size="13.00">Date: Mar 23 2022 &#45; 13:05</text>
<text text-anchor="start" x="27" y="-73.6" font-family="Times,serif" font-size="13.00">Migration version: 20220308160338</text>
<text text-anchor="start" x="27" y="-59.6" font-family="Times,serif" font-size="13.00">Generated by RailRoady 1.6.0</text>
<text text-anchor="start" x="27" y="-45.6" font-family="Times,serif" font-size="13.00">http://railroady.prestonlee.com</text>
</g>
<!-- ApplicationController -->
<g id="node2" class="node">
<title>ApplicationController</title>
<path fill="none" stroke="black" d="M12,-247.5C12,-247.5 128,-247.5 128,-247.5 134,-247.5 140,-253.5 140,-259.5 140,-259.5 140,-403.5 140,-403.5 140,-409.5 134,-415.5 128,-415.5 128,-415.5 12,-415.5 12,-415.5 6,-415.5 0,-409.5 0,-403.5 0,-403.5 0,-259.5 0,-259.5 0,-253.5 6,-247.5 12,-247.5"/>
<text text-anchor="middle" x="70" y="-400.3" font-family="Times,serif" font-size="14.00">ApplicationController</text>
<polyline fill="none" stroke="black" points="0,-392.5 140,-392.5 "/>
<text text-anchor="start" x="8" y="-377.3" font-family="Times,serif" font-size="14.00">authenticate</text>
<text text-anchor="start" x="8" y="-362.3" font-family="Times,serif" font-size="14.00">create_token</text>
<text text-anchor="start" x="8" y="-347.3" font-family="Times,serif" font-size="14.00">current_user</text>
<text text-anchor="start" x="8" y="-332.3" font-family="Times,serif" font-size="14.00">secret</text>
<text text-anchor="start" x="8" y="-317.3" font-family="Times,serif" font-size="14.00">token</text>
<polyline fill="none" stroke="black" points="0,-309.5 140,-309.5 "/>
<polyline fill="none" stroke="black" points="0,-285.5 140,-285.5 "/>
<text text-anchor="start" x="8" y="-270.3" font-family="Times,serif" font-size="14.00">_layout</text>
<text text-anchor="start" x="8" y="-255.3" font-family="Times,serif" font-size="14.00">_layout_from_proc</text>
</g>
<!-- AuthenticationController -->
<g id="node3" class="node">
<title>AuthenticationController</title>
<path fill="none" stroke="black" d="M373,-19.5C373,-19.5 506,-19.5 506,-19.5 512,-19.5 518,-25.5 518,-31.5 518,-31.5 518,-145.5 518,-145.5 518,-151.5 512,-157.5 506,-157.5 506,-157.5 373,-157.5 373,-157.5 367,-157.5 361,-151.5 361,-145.5 361,-145.5 361,-31.5 361,-31.5 361,-25.5 367,-19.5 373,-19.5"/>
<text text-anchor="middle" x="439.5" y="-142.3" font-family="Times,serif" font-size="14.00">AuthenticationController</text>
<polyline fill="none" stroke="black" points="361,-134.5 518,-134.5 "/>
<text text-anchor="start" x="369" y="-119.3" font-family="Times,serif" font-size="14.00">index</text>
<text text-anchor="start" x="369" y="-104.3" font-family="Times,serif" font-size="14.00">login</text>
<text text-anchor="start" x="369" y="-89.3" font-family="Times,serif" font-size="14.00">logout</text>
<polyline fill="none" stroke="black" points="361,-81.5 518,-81.5 "/>
<polyline fill="none" stroke="black" points="361,-57.5 518,-57.5 "/>
<text text-anchor="start" x="369" y="-42.3" font-family="Times,serif" font-size="14.00">_layout</text>
<text text-anchor="start" x="369" y="-27.3" font-family="Times,serif" font-size="14.00">_layout_from_proc</text>
</g>
<!-- Avo::IconsController -->
<g id="node4" class="node">
<title>Avo::IconsController</title>
<path fill="none" stroke="black" d="M620,-456.5C620,-456.5 731,-456.5 731,-456.5 737,-456.5 743,-462.5 743,-468.5 743,-468.5 743,-553.5 743,-553.5 743,-559.5 737,-565.5 731,-565.5 731,-565.5 620,-565.5 620,-565.5 614,-565.5 608,-559.5 608,-553.5 608,-553.5 608,-468.5 608,-468.5 608,-462.5 614,-456.5 620,-456.5"/>
<text text-anchor="middle" x="675.5" y="-550.3" font-family="Times,serif" font-size="14.00">Avo::IconsController</text>
<polyline fill="none" stroke="black" points="608,-542.5 743,-542.5 "/>
<polyline fill="none" stroke="black" points="608,-518.5 743,-518.5 "/>
<polyline fill="none" stroke="black" points="608,-494.5 743,-494.5 "/>
<text text-anchor="start" x="616" y="-479.3" font-family="Times,serif" font-size="14.00">_layout</text>
<text text-anchor="start" x="616" y="-464.3" font-family="Times,serif" font-size="14.00">_layout_from_proc</text>
</g>
<!-- Avo::PhoneticsController -->
<g id="node5" class="node">
<title>Avo::PhoneticsController</title>
<path fill="none" stroke="black" d="M563,-152.5C563,-152.5 698,-152.5 698,-152.5 704,-152.5 710,-158.5 710,-164.5 710,-164.5 710,-249.5 710,-249.5 710,-255.5 704,-261.5 698,-261.5 698,-261.5 563,-261.5 563,-261.5 557,-261.5 551,-255.5 551,-249.5 551,-249.5 551,-164.5 551,-164.5 551,-158.5 557,-152.5 563,-152.5"/>
<text text-anchor="middle" x="630.5" y="-246.3" font-family="Times,serif" font-size="14.00">Avo::PhoneticsController</text>
<polyline fill="none" stroke="black" points="551,-238.5 710,-238.5 "/>
<polyline fill="none" stroke="black" points="551,-214.5 710,-214.5 "/>
<polyline fill="none" stroke="black" points="551,-190.5 710,-190.5 "/>
<text text-anchor="start" x="559" y="-175.3" font-family="Times,serif" font-size="14.00">_layout</text>
<text text-anchor="start" x="559" y="-160.3" font-family="Times,serif" font-size="14.00">_layout_from_proc</text>
</g>
<!-- Avo::SyllableLettersController -->
<g id="node6" class="node">
<title>Avo::SyllableLettersController</title>
<path fill="none" stroke="black" d="M563,-0.5C563,-0.5 729,-0.5 729,-0.5 735,-0.5 741,-6.5 741,-12.5 741,-12.5 741,-97.5 741,-97.5 741,-103.5 735,-109.5 729,-109.5 729,-109.5 563,-109.5 563,-109.5 557,-109.5 551,-103.5 551,-97.5 551,-97.5 551,-12.5 551,-12.5 551,-6.5 557,-0.5 563,-0.5"/>
<text text-anchor="middle" x="646" y="-94.3" font-family="Times,serif" font-size="14.00">Avo::SyllableLettersController</text>
<polyline fill="none" stroke="black" points="551,-86.5 741,-86.5 "/>
<polyline fill="none" stroke="black" points="551,-62.5 741,-62.5 "/>
<polyline fill="none" stroke="black" points="551,-38.5 741,-38.5 "/>
<text text-anchor="start" x="559" y="-23.3" font-family="Times,serif" font-size="14.00">_layout</text>
<text text-anchor="start" x="559" y="-8.3" font-family="Times,serif" font-size="14.00">_layout_from_proc</text>
</g>
<!-- IconsController -->
<g id="node7" class="node">
<title>IconsController</title>
<path fill="none" stroke="black" d="M278,-456.5C278,-456.5 379,-456.5 379,-456.5 385,-456.5 391,-462.5 391,-468.5 391,-468.5 391,-672.5 391,-672.5 391,-678.5 385,-684.5 379,-684.5 379,-684.5 278,-684.5 278,-684.5 272,-684.5 266,-678.5 266,-672.5 266,-672.5 266,-468.5 266,-468.5 266,-462.5 272,-456.5 278,-456.5"/>
<text text-anchor="middle" x="328.5" y="-669.3" font-family="Times,serif" font-size="14.00">IconsController</text>
<polyline fill="none" stroke="black" points="266,-661.5 391,-661.5 "/>
<text text-anchor="start" x="274" y="-646.3" font-family="Times,serif" font-size="14.00">create</text>
<text text-anchor="start" x="274" y="-631.3" font-family="Times,serif" font-size="14.00">destroy</text>
<text text-anchor="start" x="274" y="-616.3" font-family="Times,serif" font-size="14.00">edit</text>
<text text-anchor="start" x="274" y="-601.3" font-family="Times,serif" font-size="14.00">index</text>
<text text-anchor="start" x="274" y="-586.3" font-family="Times,serif" font-size="14.00">new</text>
<text text-anchor="start" x="274" y="-571.3" font-family="Times,serif" font-size="14.00">show</text>
<text text-anchor="start" x="274" y="-556.3" font-family="Times,serif" font-size="14.00">update</text>
<polyline fill="none" stroke="black" points="266,-548.5 391,-548.5 "/>
<polyline fill="none" stroke="black" points="266,-524.5 391,-524.5 "/>
<text text-anchor="start" x="274" y="-509.3" font-family="Times,serif" font-size="14.00">_layout</text>
<text text-anchor="start" x="274" y="-494.3" font-family="Times,serif" font-size="14.00">_layout_from_proc</text>
<text text-anchor="start" x="274" y="-479.3" font-family="Times,serif" font-size="14.00">icon_params</text>
<text text-anchor="start" x="274" y="-464.3" font-family="Times,serif" font-size="14.00">set_icon</text>
</g>
<!-- PhoneticsController -->
<g id="node8" class="node">
<title>PhoneticsController</title>
<path fill="none" stroke="black" d="M107,-456.5C107,-456.5 211,-456.5 211,-456.5 217,-456.5 223,-462.5 223,-468.5 223,-468.5 223,-672.5 223,-672.5 223,-678.5 217,-684.5 211,-684.5 211,-684.5 107,-684.5 107,-684.5 101,-684.5 95,-678.5 95,-672.5 95,-672.5 95,-468.5 95,-468.5 95,-462.5 101,-456.5 107,-456.5"/>
<text text-anchor="middle" x="159" y="-669.3" font-family="Times,serif" font-size="14.00">PhoneticsController</text>
<polyline fill="none" stroke="black" points="95,-661.5 223,-661.5 "/>
<text text-anchor="start" x="103" y="-646.3" font-family="Times,serif" font-size="14.00">create</text>
<text text-anchor="start" x="103" y="-631.3" font-family="Times,serif" font-size="14.00">destroy</text>
<text text-anchor="start" x="103" y="-616.3" font-family="Times,serif" font-size="14.00">edit</text>
<text text-anchor="start" x="103" y="-601.3" font-family="Times,serif" font-size="14.00">index</text>
<text text-anchor="start" x="103" y="-586.3" font-family="Times,serif" font-size="14.00">new</text>
<text text-anchor="start" x="103" y="-571.3" font-family="Times,serif" font-size="14.00">show</text>
<text text-anchor="start" x="103" y="-556.3" font-family="Times,serif" font-size="14.00">update</text>
<polyline fill="none" stroke="black" points="95,-548.5 223,-548.5 "/>
<polyline fill="none" stroke="black" points="95,-524.5 223,-524.5 "/>
<text text-anchor="start" x="103" y="-509.3" font-family="Times,serif" font-size="14.00">_layout</text>
<text text-anchor="start" x="103" y="-494.3" font-family="Times,serif" font-size="14.00">_layout_from_proc</text>
<text text-anchor="start" x="103" y="-479.3" font-family="Times,serif" font-size="14.00">phonetic_params</text>
<text text-anchor="start" x="103" y="-464.3" font-family="Times,serif" font-size="14.00">set_phonetic</text>
</g>
<!-- RebusController -->
<g id="node9" class="node">
<title>RebusController</title>
<path fill="none" stroke="black" d="M183,-152.5C183,-152.5 320,-152.5 320,-152.5 326,-152.5 332,-158.5 332,-164.5 332,-164.5 332,-398.5 332,-398.5 332,-404.5 326,-410.5 320,-410.5 320,-410.5 183,-410.5 183,-410.5 177,-410.5 171,-404.5 171,-398.5 171,-398.5 171,-164.5 171,-164.5 171,-158.5 177,-152.5 183,-152.5"/>
<text text-anchor="middle" x="251.5" y="-395.3" font-family="Times,serif" font-size="14.00">RebusController</text>
<polyline fill="none" stroke="black" points="171,-387.5 332,-387.5 "/>
<text text-anchor="start" x="179" y="-372.3" font-family="Times,serif" font-size="14.00">guess</text>
<text text-anchor="start" x="179" y="-357.3" font-family="Times,serif" font-size="14.00">pass</text>
<text text-anchor="start" x="179" y="-342.3" font-family="Times,serif" font-size="14.00">random</text>
<text text-anchor="start" x="179" y="-327.3" font-family="Times,serif" font-size="14.00">word</text>
<polyline fill="none" stroke="black" points="171,-319.5 332,-319.5 "/>
<polyline fill="none" stroke="black" points="171,-295.5 332,-295.5 "/>
<text text-anchor="start" x="179" y="-280.3" font-family="Times,serif" font-size="14.00">set_rebus_reponse</text>
<text text-anchor="start" x="179" y="-265.3" font-family="Times,serif" font-size="14.00">_layout_from_proc</text>
<text text-anchor="start" x="179" y="-250.3" font-family="Times,serif" font-size="14.00">create_icon_array</text>
<text text-anchor="start" x="179" y="-235.3" font-family="Times,serif" font-size="14.00">create_rebus_if_not_exist</text>
<text text-anchor="start" x="179" y="-220.3" font-family="Times,serif" font-size="14.00">mapping_icon_syllable</text>
<text text-anchor="start" x="179" y="-205.3" font-family="Times,serif" font-size="14.00">parameters</text>
<text text-anchor="start" x="179" y="-190.3" font-family="Times,serif" font-size="14.00">rebus_from_word</text>
<text text-anchor="start" x="179" y="-175.3" font-family="Times,serif" font-size="14.00">set_host</text>
<text text-anchor="start" x="179" y="-160.3" font-family="Times,serif" font-size="14.00">_layout</text>
</g>
<!-- StaticPagesController -->
<g id="node10" class="node">
<title>StaticPagesController</title>
<path fill="none" stroke="black" d="M563,-304.5C563,-304.5 678,-304.5 678,-304.5 684,-304.5 690,-310.5 690,-316.5 690,-316.5 690,-400.5 690,-400.5 690,-406.5 684,-412.5 678,-412.5 678,-412.5 563,-412.5 563,-412.5 557,-412.5 551,-406.5 551,-400.5 551,-400.5 551,-316.5 551,-316.5 551,-310.5 557,-304.5 563,-304.5"/>
<text text-anchor="middle" x="620.5" y="-397.3" font-family="Times,serif" font-size="14.00">StaticPagesController</text>
<polyline fill="none" stroke="black" points="551,-389.5 690,-389.5 "/>
<text text-anchor="start" x="559" y="-374.3" font-family="Times,serif" font-size="14.00">home</text>
<polyline fill="none" stroke="black" points="551,-366.5 690,-366.5 "/>
<polyline fill="none" stroke="black" points="551,-342.5 690,-342.5 "/>
<text text-anchor="start" x="559" y="-327.3" font-family="Times,serif" font-size="14.00">_layout</text>
<text text-anchor="start" x="559" y="-312.3" font-family="Times,serif" font-size="14.00">_layout_from_proc</text>
</g>
<!-- SyllableLettersController -->
<g id="node11" class="node">
<title>SyllableLettersController</title>
<path fill="none" stroke="black" d="M373,-190.5C373,-190.5 508,-190.5 508,-190.5 514,-190.5 520,-196.5 520,-202.5 520,-202.5 520,-406.5 520,-406.5 520,-412.5 514,-418.5 508,-418.5 508,-418.5 373,-418.5 373,-418.5 367,-418.5 361,-412.5 361,-406.5 361,-406.5 361,-202.5 361,-202.5 361,-196.5 367,-190.5 373,-190.5"/>
<text text-anchor="middle" x="440.5" y="-403.3" font-family="Times,serif" font-size="14.00">SyllableLettersController</text>
<polyline fill="none" stroke="black" points="361,-395.5 520,-395.5 "/>
<text text-anchor="start" x="369" y="-380.3" font-family="Times,serif" font-size="14.00">create</text>
<text text-anchor="start" x="369" y="-365.3" font-family="Times,serif" font-size="14.00">destroy</text>
<text text-anchor="start" x="369" y="-350.3" font-family="Times,serif" font-size="14.00">edit</text>
<text text-anchor="start" x="369" y="-335.3" font-family="Times,serif" font-size="14.00">index</text>
<text text-anchor="start" x="369" y="-320.3" font-family="Times,serif" font-size="14.00">new</text>
<text text-anchor="start" x="369" y="-305.3" font-family="Times,serif" font-size="14.00">show</text>
<text text-anchor="start" x="369" y="-290.3" font-family="Times,serif" font-size="14.00">update</text>
<polyline fill="none" stroke="black" points="361,-282.5 520,-282.5 "/>
<polyline fill="none" stroke="black" points="361,-258.5 520,-258.5 "/>
<text text-anchor="start" x="369" y="-243.3" font-family="Times,serif" font-size="14.00">_layout</text>
<text text-anchor="start" x="369" y="-228.3" font-family="Times,serif" font-size="14.00">_layout_from_proc</text>
<text text-anchor="start" x="369" y="-213.3" font-family="Times,serif" font-size="14.00">set_syllable_letter</text>
<text text-anchor="start" x="369" y="-198.3" font-family="Times,serif" font-size="14.00">syllable_letter_params</text>
</g>
<!-- UsersController -->
<g id="node12" class="node">
<title>UsersController</title>
<path fill="none" stroke="black" d="M449,-456.5C449,-456.5 550,-456.5 550,-456.5 556,-456.5 562,-462.5 562,-468.5 562,-468.5 562,-657.5 562,-657.5 562,-663.5 556,-669.5 550,-669.5 550,-669.5 449,-669.5 449,-669.5 443,-669.5 437,-663.5 437,-657.5 437,-657.5 437,-468.5 437,-468.5 437,-462.5 443,-456.5 449,-456.5"/>
<text text-anchor="middle" x="499.5" y="-654.3" font-family="Times,serif" font-size="14.00">UsersController</text>
<polyline fill="none" stroke="black" points="437,-646.5 562,-646.5 "/>
<text text-anchor="start" x="445" y="-631.3" font-family="Times,serif" font-size="14.00">create</text>
<text text-anchor="start" x="445" y="-616.3" font-family="Times,serif" font-size="14.00">edit</text>
<text text-anchor="start" x="445" y="-601.3" font-family="Times,serif" font-size="14.00">index</text>
<text text-anchor="start" x="445" y="-586.3" font-family="Times,serif" font-size="14.00">leaderboard</text>
<text text-anchor="start" x="445" y="-571.3" font-family="Times,serif" font-size="14.00">new</text>
<text text-anchor="start" x="445" y="-556.3" font-family="Times,serif" font-size="14.00">show</text>
<polyline fill="none" stroke="black" points="437,-548.5 562,-548.5 "/>
<polyline fill="none" stroke="black" points="437,-524.5 562,-524.5 "/>
<text text-anchor="start" x="445" y="-509.3" font-family="Times,serif" font-size="14.00">_layout</text>
<text text-anchor="start" x="445" y="-494.3" font-family="Times,serif" font-size="14.00">_layout_from_proc</text>
<text text-anchor="start" x="445" y="-479.3" font-family="Times,serif" font-size="14.00">set_user</text>
<text text-anchor="start" x="445" y="-464.3" font-family="Times,serif" font-size="14.00">user_params</text>
</g>
</g>
</svg>
