<?xml version="1.0" encoding="UTF-8" standalone="no"?>
<!DOCTYPE svg PUBLIC "-//W3C//DTD SVG 1.1//EN"
 "http://www.w3.org/Graphics/SVG/1.1/DTD/svg11.dtd">
<!-- Generated by graphviz version 2.49.3 (20211023.0002)
 -->
<!-- Title: models_diagram Pages: 1 -->
<svg width="1565pt" height="590pt"
 viewBox="0.00 0.00 1565.30 590.00" xmlns="http://www.w3.org/2000/svg" xmlns:xlink="http://www.w3.org/1999/xlink">
<g id="graph0" class="graph" transform="scale(1 1) rotate(0) translate(4 586)">
<title>models_diagram</title>
<polygon fill="transparent" stroke="transparent" points="-4,4 -4,-586 1561.3,-586 1561.3,4 -4,4"/>
<!-- _diagram_info -->
<g id="node1" class="node">
<title>_diagram_info</title>
<text text-anchor="start" x="330.8" y="-545.6" font-family="Times,serif" font-size="13.00">Models diagram</text>
<text text-anchor="start" x="330.8" y="-531.6" font-family="Times,serif" font-size="13.00">Date: Mar 23 2022 &#45; 13:05</text>
<text text-anchor="start" x="330.8" y="-517.6" font-family="Times,serif" font-size="13.00">Migration version: 20220308160338</text>
<text text-anchor="start" x="330.8" y="-503.6" font-family="Times,serif" font-size="13.00">Generated by RailRoady 1.6.0</text>
<text text-anchor="start" x="330.8" y="-489.6" font-family="Times,serif" font-size="13.00">http://railroady.prestonlee.com</text>
</g>
<!-- ApplicationRecord -->
<g id="node2" class="node">
<title>ApplicationRecord</title>
<ellipse fill="none" stroke="black" cx="628.8" cy="-521" rx="79.89" ry="18"/>
<text text-anchor="middle" x="628.8" y="-517.3" font-family="Times,serif" font-size="14.00">ApplicationRecord</text>
</g>
<!-- Icon -->
<g id="node3" class="node">
<title>Icon</title>
<path fill="none" stroke="black" d="M738.3,-475.5C738.3,-475.5 979.3,-475.5 979.3,-475.5 985.3,-475.5 991.3,-481.5 991.3,-487.5 991.3,-487.5 991.3,-554.5 991.3,-554.5 991.3,-560.5 985.3,-566.5 979.3,-566.5 979.3,-566.5 738.3,-566.5 738.3,-566.5 732.3,-566.5 726.3,-560.5 726.3,-554.5 726.3,-554.5 726.3,-487.5 726.3,-487.5 726.3,-481.5 732.3,-475.5 738.3,-475.5"/>
<text text-anchor="middle" x="858.8" y="-551.3" font-family="Times,serif" font-size="14.00">Icon</text>
<polyline fill="none" stroke="black" points="726.3,-543.5 991.3,-543.5 "/>
<text text-anchor="start" x="734.3" y="-528.3" font-family="Times,serif" font-size="14.00">id :bigint</text>
<text text-anchor="start" x="734.3" y="-513.3" font-family="Times,serif" font-size="14.00">name :character varying</text>
<text text-anchor="start" x="734.3" y="-498.3" font-family="Times,serif" font-size="14.00">created_at :timestamp(6) without time zone</text>
<text text-anchor="start" x="734.3" y="-483.3" font-family="Times,serif" font-size="14.00">updated_at :timestamp(6) without time zone</text>
</g>
<!-- IconPhonetic -->
<g id="node4" class="node">
<title>IconPhonetic</title>
<path fill="none" stroke="black" d="M126.3,-287.5C126.3,-287.5 367.3,-287.5 367.3,-287.5 373.3,-287.5 379.3,-293.5 379.3,-299.5 379.3,-299.5 379.3,-396.5 379.3,-396.5 379.3,-402.5 373.3,-408.5 367.3,-408.5 367.3,-408.5 126.3,-408.5 126.3,-408.5 120.3,-408.5 114.3,-402.5 114.3,-396.5 114.3,-396.5 114.3,-299.5 114.3,-299.5 114.3,-293.5 120.3,-287.5 126.3,-287.5"/>
<text text-anchor="middle" x="246.8" y="-393.3" font-family="Times,serif" font-size="14.00">IconPhonetic</text>
<polyline fill="none" stroke="black" points="114.3,-385.5 379.3,-385.5 "/>
<text text-anchor="start" x="122.3" y="-370.3" font-family="Times,serif" font-size="14.00">id :bigint</text>
<text text-anchor="start" x="122.3" y="-355.3" font-family="Times,serif" font-size="14.00">icon_id :bigint</text>
<text text-anchor="start" x="122.3" y="-340.3" font-family="Times,serif" font-size="14.00">direct_phonetic_id :bigint</text>
<text text-anchor="start" x="122.3" y="-325.3" font-family="Times,serif" font-size="14.00">undirect_phonetic_id :bigint</text>
<text text-anchor="start" x="122.3" y="-310.3" font-family="Times,serif" font-size="14.00">created_at :timestamp(6) without time zone</text>
<text text-anchor="start" x="122.3" y="-295.3" font-family="Times,serif" font-size="14.00">updated_at :timestamp(6) without time zone</text>
</g>
<!-- Icon&#45;&gt;IconPhonetic -->
<g id="edge3" class="edge">
<title>Icon&#45;&gt;IconPhonetic</title>
<path fill="none" stroke="#cd4feb" d="M756.16,-471.81C743.45,-467.19 730.46,-463.09 717.8,-460 615.16,-434.99 583.72,-465.78 480.8,-442 449.34,-434.73 416.55,-423.92 385.83,-412.21"/>
<polygon fill="#cd4feb" stroke="#cd4feb" points="756.46,-471.92 764.25,-479.65 761.15,-473.68 765.83,-475.43 765.83,-475.43 765.83,-475.43 761.15,-473.68 767.41,-471.22 756.46,-471.92 756.46,-471.92"/>
<polygon fill="#cd4feb" stroke="#cd4feb" points="385.69,-412.15 377.98,-404.35 381.02,-410.35 376.36,-408.54 376.36,-408.54 376.36,-408.54 381.02,-410.35 374.74,-412.74 385.69,-412.15 385.69,-412.15"/>
</g>
<!-- Phonetic -->
<g id="node5" class="node">
<title>Phonetic</title>
<path fill="none" stroke="black" d="M349.3,-144.5C349.3,-144.5 590.3,-144.5 590.3,-144.5 596.3,-144.5 602.3,-150.5 602.3,-156.5 602.3,-156.5 602.3,-223.5 602.3,-223.5 602.3,-229.5 596.3,-235.5 590.3,-235.5 590.3,-235.5 349.3,-235.5 349.3,-235.5 343.3,-235.5 337.3,-229.5 337.3,-223.5 337.3,-223.5 337.3,-156.5 337.3,-156.5 337.3,-150.5 343.3,-144.5 349.3,-144.5"/>
<text text-anchor="middle" x="469.8" y="-220.3" font-family="Times,serif" font-size="14.00">Phonetic</text>
<polyline fill="none" stroke="black" points="337.3,-212.5 602.3,-212.5 "/>
<text text-anchor="start" x="345.3" y="-197.3" font-family="Times,serif" font-size="14.00">id :bigint</text>
<text text-anchor="start" x="345.3" y="-182.3" font-family="Times,serif" font-size="14.00">phonetic :character varying</text>
<text text-anchor="start" x="345.3" y="-167.3" font-family="Times,serif" font-size="14.00">created_at :timestamp(6) without time zone</text>
<text text-anchor="start" x="345.3" y="-152.3" font-family="Times,serif" font-size="14.00">updated_at :timestamp(6) without time zone</text>
</g>
<!-- Icon&#45;&gt;Phonetic -->
<g id="edge4" class="edge">
<title>Icon&#45;&gt;Phonetic</title>
<path fill="none" stroke="#cf6603" d="M753.05,-471.85C741.29,-467.44 729.38,-463.38 717.8,-460 626.01,-433.23 564.93,-486.4 508.8,-409 476.96,-365.11 484.55,-335.5 508.8,-287 514.76,-275.07 526.83,-280.93 532.8,-269 535.78,-263.04 535.35,-260.16 532.8,-254 531.42,-250.68 529.78,-247.45 527.93,-244.32"/>
<polygon fill="#cf6603" stroke="#cf6603" points="753.09,-471.87 760.82,-479.65 757.76,-473.66 762.43,-475.45 762.43,-475.45 762.43,-475.45 757.76,-473.66 764.04,-471.24 753.09,-471.87 753.09,-471.87"/>
<polygon fill="#cf6603" stroke="#cf6603" points="527.76,-244.06 525.96,-233.24 524.99,-239.9 522.21,-235.74 522.21,-235.74 522.21,-235.74 524.99,-239.9 518.47,-238.23 527.76,-244.06 527.76,-244.06"/>
<text text-anchor="middle" x="555.3" y="-344.3" font-family="Times,serif" font-size="14.00">direct_phonetics</text>
</g>
<!-- Icon&#45;&gt;Phonetic -->
<g id="edge5" class="edge">
<title>Icon&#45;&gt;Phonetic</title>
<path fill="none" stroke="#dbe4fe" d="M749.21,-471.17C695.91,-446.53 641.44,-419.65 632.8,-409 597.55,-365.55 633.17,-333.32 601.8,-287 590.19,-269.86 574.46,-254.69 557.9,-241.75"/>
<polygon fill="#dbe4fe" stroke="#dbe4fe" points="749.36,-471.24 756.56,-479.51 753.9,-473.33 758.44,-475.42 758.44,-475.42 758.44,-475.42 753.9,-473.33 760.32,-471.33 749.36,-471.24 749.36,-471.24"/>
<polygon fill="#dbe4fe" stroke="#dbe4fe" points="557.71,-241.61 552.43,-231.99 553.71,-238.6 549.72,-235.59 549.72,-235.59 549.72,-235.59 553.71,-238.6 547.01,-239.18 557.71,-241.61 557.71,-241.61"/>
<text text-anchor="middle" x="686.3" y="-344.3" font-family="Times,serif" font-size="14.00">undirect_phonetics</text>
</g>
<!-- ActiveStorage::Attachment -->
<g id="node9" class="node">
<title>ActiveStorage::Attachment</title>
<ellipse fill="none" stroke="black" cx="858.8" cy="-348" rx="110.48" ry="18"/>
<text text-anchor="middle" x="858.8" y="-344.3" font-family="Times,serif" font-size="14.00">ActiveStorage::Attachment</text>
</g>
<!-- Icon&#45;&gt;ActiveStorage::Attachment -->
<g id="edge1" class="edge">
<title>Icon&#45;&gt;ActiveStorage::Attachment</title>
<path fill="none" stroke="#9dae27" d="M858.8,-464.76C858.8,-435.2 858.8,-400.1 858.8,-376.36"/>
<polygon fill="#9dae27" stroke="#9dae27" points="858.8,-465.07 854.3,-475.07 858.8,-470.07 858.8,-475.07 858.8,-475.07 858.8,-475.07 858.8,-470.07 863.3,-475.07 858.8,-465.07 858.8,-465.07"/>
<polygon fill="#9dae27" stroke="#9dae27" points="858.8,-376.32 863.3,-366.32 858.8,-371.32 858.8,-366.32 858.8,-366.32 858.8,-366.32 858.8,-371.32 854.3,-366.32 858.8,-376.32 858.8,-376.32"/>
<text text-anchor="middle" x="910.3" y="-430.8" font-family="Times,serif" font-size="14.00">image_attachment</text>
</g>
<!-- ActiveStorage::Blob -->
<g id="node10" class="node">
<title>ActiveStorage::Blob</title>
<ellipse fill="none" stroke="black" cx="1072.8" cy="-348" rx="85.59" ry="18"/>
<text text-anchor="middle" x="1072.8" y="-344.3" font-family="Times,serif" font-size="14.00">ActiveStorage::Blob</text>
</g>
<!-- Icon&#45;&gt;ActiveStorage::Blob -->
<g id="edge2" class="edge">
<title>Icon&#45;&gt;ActiveStorage::Blob</title>
<path fill="none" stroke="#136502" d="M930.25,-469.22C942.25,-460.32 954.48,-451.02 965.8,-442 994.3,-419.29 1025.63,-391.74 1046.98,-372.54"/>
<polygon fill="#136502" stroke="#136502" points="930.04,-469.37 919.32,-471.69 926.02,-472.34 921.99,-475.31 921.99,-475.31 921.99,-475.31 926.02,-472.34 924.66,-478.93 930.04,-469.37 930.04,-469.37"/>
<polygon fill="#136502" stroke="#136502" points="1047.23,-372.32 1057.66,-368.96 1050.94,-368.97 1054.65,-365.62 1054.65,-365.62 1054.65,-365.62 1050.94,-368.97 1051.63,-362.28 1047.23,-372.32 1047.23,-372.32"/>
<text text-anchor="middle" x="1016.3" y="-430.8" font-family="Times,serif" font-size="14.00">image_blob</text>
</g>
<!-- IconPhonetic&#45;&gt;Phonetic -->
<g id="edge6" class="edge">
<title>IconPhonetic&#45;&gt;Phonetic</title>
<path fill="none" stroke="#cbf359" d="M103.83,-332.66C34.92,-320.08 -25.51,-296.79 11.8,-254 32.52,-230.24 200.33,-211.91 326.87,-201.3"/>
<polygon fill="#cbf359" stroke="#cbf359" points="104.19,-332.72 113.27,-338.87 109.12,-333.58 114.05,-334.44 114.05,-334.44 114.05,-334.44 109.12,-333.58 114.82,-330 104.19,-332.72 104.19,-332.72"/>
<polygon fill="#cbf359" stroke="#cbf359" points="327.09,-201.28 337.43,-204.94 332.07,-200.87 337.05,-200.46 337.05,-200.46 337.05,-200.46 332.07,-200.87 336.68,-195.97 327.09,-201.28 327.09,-201.28"/>
<text text-anchor="middle" x="55.8" y="-257.8" font-family="Times,serif" font-size="14.00">direct_phonetic</text>
</g>
<!-- IconPhonetic&#45;&gt;Phonetic -->
<g id="edge7" class="edge">
<title>IconPhonetic&#45;&gt;Phonetic</title>
<path fill="none" stroke="#3b425f" d="M116.34,-278.25C114.11,-270.56 115.75,-262.44 122.8,-254 149.14,-222.44 243.34,-206.65 326.94,-198.78"/>
<polygon fill="#3b425f" stroke="#3b425f" points="116.43,-278.43 116.84,-289.39 118.65,-282.91 120.87,-287.39 120.87,-287.39 120.87,-287.39 118.65,-282.91 124.9,-285.4 116.43,-278.43 116.43,-278.43"/>
<polygon fill="#3b425f" stroke="#3b425f" points="327.12,-198.76 337.49,-202.34 332.1,-198.31 337.08,-197.86 337.08,-197.86 337.08,-197.86 332.1,-198.31 336.67,-193.38 327.12,-198.76 327.12,-198.76"/>
<text text-anchor="middle" x="173.8" y="-257.8" font-family="Times,serif" font-size="14.00">undirect_phonetic</text>
</g>
<!-- Phonetic&#45;&gt;Icon -->
<g id="edge10" class="edge">
<title>Phonetic&#45;&gt;Icon</title>
<path fill="none" stroke="#489f3a" d="M612.65,-200.72C806.2,-215.37 1131.9,-245.82 1167.8,-287 1203.43,-327.87 1200.06,-365.42 1167.8,-409 1121.63,-471.38 1073.75,-433.53 1000.8,-460 990.78,-463.63 980.45,-467.59 970.13,-471.68"/>
<polygon fill="#489f3a" stroke="#489f3a" points="612.64,-200.72 603.01,-195.48 607.66,-200.35 602.67,-199.97 602.67,-199.97 602.67,-199.97 607.66,-200.35 602.33,-204.46 612.64,-200.72 612.64,-200.72"/>
<polygon fill="#489f3a" stroke="#489f3a" points="969.96,-471.75 959.01,-471.29 965.32,-473.61 960.68,-475.46 960.68,-475.46 960.68,-475.46 965.32,-473.61 962.35,-479.64 969.96,-471.75 969.96,-471.75"/>
<text text-anchor="middle" x="1254.8" y="-344.3" font-family="Times,serif" font-size="14.00">direct_phonetic_icons</text>
</g>
<!-- Phonetic&#45;&gt;Icon -->
<g id="edge12" class="edge">
<title>Phonetic&#45;&gt;Icon</title>
<path fill="none" stroke="#df664d" d="M612.68,-196.65C843.14,-207.29 1275.78,-234.11 1320.8,-287 1355.94,-328.29 1355.27,-367.15 1320.8,-409 1275.02,-464.58 1070.4,-441.54 1000.8,-460 988.53,-463.25 975.94,-467.36 963.56,-471.89"/>
<polygon fill="#df664d" stroke="#df664d" points="612.53,-196.65 602.75,-191.69 607.54,-196.42 602.54,-196.19 602.54,-196.19 602.54,-196.19 607.54,-196.42 602.34,-200.69 612.53,-196.65 612.53,-196.65"/>
<polygon fill="#df664d" stroke="#df664d" points="963.5,-471.91 952.56,-471.22 958.82,-473.67 954.14,-475.43 954.14,-475.43 954.14,-475.43 958.82,-473.67 955.73,-479.64 963.5,-471.91 963.5,-471.91"/>
<text text-anchor="middle" x="1415.8" y="-344.3" font-family="Times,serif" font-size="14.00">undirect_phonetic_icons</text>
</g>
<!-- Phonetic&#45;&gt;IconPhonetic -->
<g id="edge9" class="edge">
<title>Phonetic&#45;&gt;IconPhonetic</title>
<path fill="none" stroke="#848081" d="M327.28,-217.33C290.98,-227.03 259.02,-239.32 247.8,-254 242.58,-260.82 239.49,-268.83 237.87,-277.22"/>
<polygon fill="#848081" stroke="#848081" points="327.42,-217.29 338.23,-219.15 332.27,-216.04 337.11,-214.79 337.11,-214.79 337.11,-214.79 332.27,-216.04 335.98,-210.43 327.42,-217.29 327.42,-217.29"/>
<polygon fill="#848081" stroke="#848081" points="237.86,-277.3 232.13,-286.65 237.23,-282.26 236.59,-287.22 236.59,-287.22 236.59,-287.22 237.23,-282.26 241.06,-287.78 237.86,-277.3 237.86,-277.3"/>
<text text-anchor="middle" x="309.8" y="-257.8" font-family="Times,serif" font-size="14.00">direct_icon_phonetics</text>
</g>
<!-- Phonetic&#45;&gt;IconPhonetic -->
<g id="edge11" class="edge">
<title>Phonetic&#45;&gt;IconPhonetic</title>
<path fill="none" stroke="#a16df4" d="M407.9,-242.01C396.09,-251.24 383.7,-260.59 371.8,-269 365.84,-273.21 359.65,-277.45 353.37,-281.66"/>
<polygon fill="#a16df4" stroke="#a16df4" points="408.11,-241.84 418.75,-239.19 412.03,-238.75 415.96,-235.66 415.96,-235.66 415.96,-235.66 412.03,-238.75 413.18,-232.12 408.11,-241.84 408.11,-241.84"/>
<polygon fill="#a16df4" stroke="#a16df4" points="353.08,-281.86 342.26,-283.64 348.91,-284.62 344.75,-287.39 344.75,-287.39 344.75,-287.39 348.91,-284.62 347.23,-291.14 353.08,-281.86 353.08,-281.86"/>
<text text-anchor="middle" x="460.8" y="-257.8" font-family="Times,serif" font-size="14.00">undirect_icon_phonetics</text>
</g>
<!-- SyllableLetter -->
<g id="node7" class="node">
<title>SyllableLetter</title>
<path fill="none" stroke="black" d="M349.3,-0.5C349.3,-0.5 590.3,-0.5 590.3,-0.5 596.3,-0.5 602.3,-6.5 602.3,-12.5 602.3,-12.5 602.3,-94.5 602.3,-94.5 602.3,-100.5 596.3,-106.5 590.3,-106.5 590.3,-106.5 349.3,-106.5 349.3,-106.5 343.3,-106.5 337.3,-100.5 337.3,-94.5 337.3,-94.5 337.3,-12.5 337.3,-12.5 337.3,-6.5 343.3,-0.5 349.3,-0.5"/>
<text text-anchor="middle" x="469.8" y="-91.3" font-family="Times,serif" font-size="14.00">SyllableLetter</text>
<polyline fill="none" stroke="black" points="337.3,-83.5 602.3,-83.5 "/>
<text text-anchor="start" x="345.3" y="-68.3" font-family="Times,serif" font-size="14.00">id :bigint</text>
<text text-anchor="start" x="345.3" y="-53.3" font-family="Times,serif" font-size="14.00">syllable_letter :character varying</text>
<text text-anchor="start" x="345.3" y="-38.3" font-family="Times,serif" font-size="14.00">phonetic_id :bigint</text>
<text text-anchor="start" x="345.3" y="-23.3" font-family="Times,serif" font-size="14.00">created_at :timestamp(6) without time zone</text>
<text text-anchor="start" x="345.3" y="-8.3" font-family="Times,serif" font-size="14.00">updated_at :timestamp(6) without time zone</text>
</g>
<!-- Phonetic&#45;&gt;SyllableLetter -->
<g id="edge8" class="edge">
<title>Phonetic&#45;&gt;SyllableLetter</title>
<path fill="none" stroke="#ad5e6b" d="M469.8,-134.1C469.8,-128.41 469.8,-122.6 469.8,-116.83"/>
<polygon fill="#ad5e6b" stroke="#ad5e6b" points="469.8,-134.21 465.3,-144.21 469.8,-139.21 469.8,-144.21 469.8,-144.21 469.8,-144.21 469.8,-139.21 474.3,-144.21 469.8,-134.21 469.8,-134.21"/>
<polygon fill="#ad5e6b" stroke="#ad5e6b" points="469.8,-116.54 474.3,-106.54 469.8,-111.54 469.8,-106.54 469.8,-106.54 469.8,-106.54 469.8,-111.54 465.3,-106.54 469.8,-116.54 469.8,-116.54"/>
</g>
<!-- RebusReponse -->
<g id="node6" class="node">
<title>RebusReponse</title>
<path fill="none" stroke="black" d="M1021.3,-468C1021.3,-468 1262.3,-468 1262.3,-468 1268.3,-468 1274.3,-474 1274.3,-480 1274.3,-480 1274.3,-562 1274.3,-562 1274.3,-568 1268.3,-574 1262.3,-574 1262.3,-574 1021.3,-574 1021.3,-574 1015.3,-574 1009.3,-568 1009.3,-562 1009.3,-562 1009.3,-480 1009.3,-480 1009.3,-474 1015.3,-468 1021.3,-468"/>
<text text-anchor="middle" x="1141.8" y="-558.8" font-family="Times,serif" font-size="14.00">RebusReponse</text>
<polyline fill="none" stroke="black" points="1009.3,-551 1274.3,-551 "/>
<text text-anchor="start" x="1017.3" y="-535.8" font-family="Times,serif" font-size="14.00">id :bigint</text>
<text text-anchor="start" x="1017.3" y="-520.8" font-family="Times,serif" font-size="14.00">word :character varying</text>
<text text-anchor="start" x="1017.3" y="-505.8" font-family="Times,serif" font-size="14.00">difficulty :integer</text>
<text text-anchor="start" x="1017.3" y="-490.8" font-family="Times,serif" font-size="14.00">created_at :timestamp(6) without time zone</text>
<text text-anchor="start" x="1017.3" y="-475.8" font-family="Times,serif" font-size="14.00">updated_at :timestamp(6) without time zone</text>
</g>
<!-- User -->
<g id="node8" class="node">
<title>User</title>
<path fill="none" stroke="black" d="M1304.3,-460.5C1304.3,-460.5 1545.3,-460.5 1545.3,-460.5 1551.3,-460.5 1557.3,-466.5 1557.3,-472.5 1557.3,-472.5 1557.3,-569.5 1557.3,-569.5 1557.3,-575.5 1551.3,-581.5 1545.3,-581.5 1545.3,-581.5 1304.3,-581.5 1304.3,-581.5 1298.3,-581.5 1292.3,-575.5 1292.3,-569.5 1292.3,-569.5 1292.3,-472.5 1292.3,-472.5 1292.3,-466.5 1298.3,-460.5 1304.3,-460.5"/>
<text text-anchor="middle" x="1424.8" y="-566.3" font-family="Times,serif" font-size="14.00">User</text>
<polyline fill="none" stroke="black" points="1292.3,-558.5 1557.3,-558.5 "/>
<text text-anchor="start" x="1300.3" y="-543.3" font-family="Times,serif" font-size="14.00">id :bigint</text>
<text text-anchor="start" x="1300.3" y="-528.3" font-family="Times,serif" font-size="14.00">username :character varying</text>
<text text-anchor="start" x="1300.3" y="-513.3" font-family="Times,serif" font-size="14.00">password_digest :character varying</text>
<text text-anchor="start" x="1300.3" y="-498.3" font-family="Times,serif" font-size="14.00">points :integer</text>
<text text-anchor="start" x="1300.3" y="-483.3" font-family="Times,serif" font-size="14.00">created_at :timestamp(6) without time zone</text>
<text text-anchor="start" x="1300.3" y="-468.3" font-family="Times,serif" font-size="14.00">updated_at :timestamp(6) without time zone</text>
</g>
</g>
</svg>
