<?xml version="1.0" encoding="UTF-8" standalone="no"?>
<!DOCTYPE svg PUBLIC "-//W3C//DTD SVG 1.1//EN"
 "http://www.w3.org/Graphics/SVG/1.1/DTD/svg11.dtd">
<!-- Generated by graphviz version 2.49.3 (20211023.0002)
 -->
<!-- Title: models_diagram Pages: 1 -->
<svg width="1447pt" height="333pt"
 viewBox="0.00 0.00 1447.35 333.00" xmlns="http://www.w3.org/2000/svg" xmlns:xlink="http://www.w3.org/1999/xlink">
<g id="graph0" class="graph" transform="scale(1 1) rotate(0) translate(4 329)">
<title>models_diagram</title>
<polygon fill="transparent" stroke="transparent" points="-4,4 -4,-329 1443.35,-329 1443.35,4 -4,4"/>
<!-- _diagram_info -->
<g id="node1" class="node">
<title>_diagram_info</title>
<text text-anchor="start" x="427.35" y="-310.6" font-family="Times,serif" font-size="13.00">Models diagram</text>
<text text-anchor="start" x="427.35" y="-296.6" font-family="Times,serif" font-size="13.00">Date: Mar 23 2022 &#45; 13:05</text>
<text text-anchor="start" x="427.35" y="-282.6" font-family="Times,serif" font-size="13.00">Migration version: 20220308160338</text>
<text text-anchor="start" x="427.35" y="-268.6" font-family="Times,serif" font-size="13.00">Generated by RailRoady 1.6.0</text>
<text text-anchor="start" x="427.35" y="-254.6" font-family="Times,serif" font-size="13.00">http://railroady.prestonlee.com</text>
</g>
<!-- ApplicationRecord -->
<g id="node2" class="node">
<title>ApplicationRecord</title>
<ellipse fill="none" stroke="black" cx="725.35" cy="-286" rx="79.89" ry="18"/>
<text text-anchor="middle" x="725.35" y="-282.3" font-family="Times,serif" font-size="14.00">ApplicationRecord</text>
</g>
<!-- Icon -->
<g id="node3" class="node">
<title>Icon</title>
<ellipse fill="none" stroke="black" cx="850.35" cy="-286" rx="27" ry="18"/>
<text text-anchor="middle" x="850.35" y="-282.3" font-family="Times,serif" font-size="14.00">Icon</text>
</g>
<!-- IconPhonetic -->
<g id="node4" class="node">
<title>IconPhonetic</title>
<ellipse fill="none" stroke="black" cx="238.35" cy="-178" rx="58.49" ry="18"/>
<text text-anchor="middle" x="238.35" y="-174.3" font-family="Times,serif" font-size="14.00">IconPhonetic</text>
</g>
<!-- Icon&#45;&gt;IconPhonetic -->
<g id="edge3" class="edge">
<title>Icon&#45;&gt;IconPhonetic</title>
<path fill="none" stroke="#f8b18d" d="M833.32,-261.44C827.93,-255.72 821.5,-250.3 814.35,-247 745.26,-215.1 547.8,-238.98 472.35,-229 409.62,-220.7 338.7,-204.58 291.54,-192.88"/>
<polygon fill="#f8b18d" stroke="#f8b18d" points="833.49,-261.65 836.55,-272.18 836.73,-265.46 839.97,-269.27 839.97,-269.27 839.97,-269.27 836.73,-265.46 843.4,-266.35 833.49,-261.65 833.49,-261.65"/>
<polygon fill="#f8b18d" stroke="#f8b18d" points="291.26,-192.8 282.65,-186.01 286.41,-191.59 281.55,-190.38 281.55,-190.38 281.55,-190.38 286.41,-191.59 280.46,-194.74 291.26,-192.8 291.26,-192.8"/>
</g>
<!-- Phonetic -->
<g id="node5" class="node">
<title>Phonetic</title>
<ellipse fill="none" stroke="black" cx="461.35" cy="-91" rx="42.49" ry="18"/>
<text text-anchor="middle" x="461.35" y="-87.3" font-family="Times,serif" font-size="14.00">Phonetic</text>
</g>
<!-- Icon&#45;&gt;Phonetic -->
<g id="edge4" class="edge">
<title>Icon&#45;&gt;Phonetic</title>
<path fill="none" stroke="#e8eac8" d="M833.25,-261.59C827.86,-255.87 821.45,-250.41 814.35,-247 686.94,-185.71 583.36,-310.45 500.35,-196 490.96,-183.05 493.2,-174.31 500.35,-160 506.32,-148.07 518.39,-153.93 524.35,-142 527.34,-136.04 527.73,-132.75 524.35,-127 519.41,-118.6 511.64,-112.07 503.22,-107.05"/>
<polygon fill="#e8eac8" stroke="#e8eac8" points="833.42,-261.79 836.49,-272.32 836.67,-265.59 839.91,-269.39 839.91,-269.39 839.91,-269.39 836.67,-265.59 843.34,-266.47 833.42,-261.79 833.42,-261.79"/>
<polygon fill="#e8eac8" stroke="#e8eac8" points="503.15,-107.01 496.4,-98.37 498.72,-104.68 494.3,-102.35 494.3,-102.35 494.3,-102.35 498.72,-104.68 492.2,-106.33 503.15,-107.01 503.15,-107.01"/>
<text text-anchor="middle" x="546.85" y="-174.3" font-family="Times,serif" font-size="14.00">direct_phonetics</text>
</g>
<!-- Icon&#45;&gt;Phonetic -->
<g id="edge5" class="edge">
<title>Icon&#45;&gt;Phonetic</title>
<path fill="none" stroke="#3fbd21" d="M831.93,-261.48C826.75,-256.08 820.75,-250.81 814.35,-247 739.24,-202.25 698.38,-242.52 624.35,-196 606.48,-184.77 609.39,-173.74 593.35,-160 572.28,-141.95 564.88,-139.99 540.35,-127 527.68,-120.29 513.45,-113.71 500.59,-108.09"/>
<polygon fill="#3fbd21" stroke="#3fbd21" points="832.27,-261.86 835.56,-272.32 835.59,-265.59 838.92,-269.33 838.92,-269.33 838.92,-269.33 835.59,-265.59 842.28,-266.34 832.27,-261.86 832.27,-261.86"/>
<polygon fill="#3fbd21" stroke="#3fbd21" points="500.27,-107.96 492.86,-99.87 495.68,-105.98 491.08,-104.01 491.08,-104.01 491.08,-104.01 495.68,-105.98 489.31,-108.14 500.27,-107.96 500.27,-107.96"/>
<text text-anchor="middle" x="677.85" y="-174.3" font-family="Times,serif" font-size="14.00">undirect_phonetics</text>
</g>
<!-- ActiveStorage::Attachment -->
<g id="node9" class="node">
<title>ActiveStorage::Attachment</title>
<ellipse fill="none" stroke="black" cx="850.35" cy="-178" rx="110.48" ry="18"/>
<text text-anchor="middle" x="850.35" y="-174.3" font-family="Times,serif" font-size="14.00">ActiveStorage::Attachment</text>
</g>
<!-- Icon&#45;&gt;ActiveStorage::Attachment -->
<g id="edge1" class="edge">
<title>Icon&#45;&gt;ActiveStorage::Attachment</title>
<path fill="none" stroke="#07b304" d="M850.35,-257.93C850.35,-242.19 850.35,-222.39 850.35,-206.57"/>
<polygon fill="#07b304" stroke="#07b304" points="850.35,-257.97 845.85,-267.97 850.35,-262.97 850.35,-267.97 850.35,-267.97 850.35,-267.97 850.35,-262.97 854.85,-267.97 850.35,-257.97 850.35,-257.97"/>
<polygon fill="#07b304" stroke="#07b304" points="850.35,-206.34 854.85,-196.34 850.35,-201.34 850.35,-196.34 850.35,-196.34 850.35,-196.34 850.35,-201.34 845.85,-196.34 850.35,-206.34 850.35,-206.34"/>
<text text-anchor="middle" x="901.85" y="-217.8" font-family="Times,serif" font-size="14.00">image_attachment</text>
</g>
<!-- ActiveStorage::Blob -->
<g id="node10" class="node">
<title>ActiveStorage::Blob</title>
<ellipse fill="none" stroke="black" cx="1064.35" cy="-178" rx="85.59" ry="18"/>
<text text-anchor="middle" x="1064.35" y="-174.3" font-family="Times,serif" font-size="14.00">ActiveStorage::Blob</text>
</g>
<!-- Icon&#45;&gt;ActiveStorage::Blob -->
<g id="edge2" class="edge">
<title>Icon&#45;&gt;ActiveStorage::Blob</title>
<path fill="none" stroke="#18df35" d="M868.74,-261.42C873.93,-256.02 879.93,-250.77 886.35,-247 914.44,-230.53 926.69,-239.94 957.35,-229 980.36,-220.79 1005.13,-209.39 1025.03,-199.55"/>
<polygon fill="#18df35" stroke="#18df35" points="868.4,-261.8 858.39,-266.29 865.08,-265.54 861.76,-269.27 861.76,-269.27 861.76,-269.27 865.08,-265.54 865.12,-272.26 868.4,-261.8 868.4,-261.8"/>
<polygon fill="#18df35" stroke="#18df35" points="1025.16,-199.49 1036.11,-199.04 1029.63,-197.25 1034.1,-195.02 1034.1,-195.02 1034.1,-195.02 1029.63,-197.25 1032.08,-190.99 1025.16,-199.49 1025.16,-199.49"/>
<text text-anchor="middle" x="1026.85" y="-217.8" font-family="Times,serif" font-size="14.00">image_blob</text>
</g>
<!-- IconPhonetic&#45;&gt;Phonetic -->
<g id="edge6" class="edge">
<title>IconPhonetic&#45;&gt;Phonetic</title>
<path fill="none" stroke="#7e5f07" d="M169.88,-176.36C108.36,-174.16 24.53,-166.56 3.35,-142 -1,-136.95 -1.18,-131.89 3.35,-127 30.42,-97.79 294.13,-92.85 408.68,-92.1"/>
<polygon fill="#7e5f07" stroke="#7e5f07" points="169.93,-176.36 179.79,-181.18 174.93,-176.52 179.93,-176.68 179.93,-176.68 179.93,-176.68 174.93,-176.52 180.07,-172.18 169.93,-176.36 169.93,-176.36"/>
<polygon fill="#7e5f07" stroke="#7e5f07" points="408.96,-92.09 418.98,-96.54 413.96,-92.07 418.96,-92.04 418.96,-92.04 418.96,-92.04 413.96,-92.07 418.93,-87.54 408.96,-92.09 408.96,-92.09"/>
<text text-anchor="middle" x="47.35" y="-130.8" font-family="Times,serif" font-size="14.00">direct_phonetic</text>
</g>
<!-- IconPhonetic&#45;&gt;Phonetic -->
<g id="edge7" class="edge">
<title>IconPhonetic&#45;&gt;Phonetic</title>
<path fill="none" stroke="#856535" d="M172.77,-170.54C132.44,-164.04 92.35,-151.34 114.35,-127 133.71,-105.59 316.69,-96.66 408.85,-93.49"/>
<polygon fill="#856535" stroke="#856535" points="172.83,-170.55 182.06,-176.47 177.77,-171.29 182.72,-172.02 182.72,-172.02 182.72,-172.02 177.77,-171.29 183.38,-167.57 172.83,-170.55 172.83,-170.55"/>
<polygon fill="#856535" stroke="#856535" points="409.09,-93.49 419.23,-97.65 414.09,-93.32 419.08,-93.15 419.08,-93.15 419.08,-93.15 414.09,-93.32 418.94,-88.65 409.09,-93.49 409.09,-93.49"/>
<text text-anchor="middle" x="165.35" y="-130.8" font-family="Times,serif" font-size="14.00">undirect_phonetic</text>
</g>
<!-- Phonetic&#45;&gt;Icon -->
<g id="edge10" class="edge">
<title>Phonetic&#45;&gt;Icon</title>
<path fill="none" stroke="#d46f7e" d="M513.61,-93.13C668.34,-97.03 1116.12,-112.35 1159.35,-160 1170.1,-171.85 1168.63,-182.96 1159.35,-196 1133.45,-232.42 1108,-219.35 1064.35,-229 986.71,-246.16 957.72,-211.94 886.35,-247 879.4,-250.42 873.09,-255.77 867.76,-261.39"/>
<polygon fill="#d46f7e" stroke="#d46f7e" points="513.41,-93.13 503.53,-88.38 508.41,-93.01 503.41,-92.88 503.41,-92.88 503.41,-92.88 508.41,-93.01 503.3,-97.38 513.41,-93.13 513.41,-93.13"/>
<polygon fill="#d46f7e" stroke="#d46f7e" points="867.66,-261.5 857.72,-266.13 864.4,-265.29 861.13,-269.07 861.13,-269.07 861.13,-269.07 864.4,-265.29 864.54,-272.01 867.66,-261.5 867.66,-261.5"/>
<text text-anchor="middle" x="1228.35" y="-174.3" font-family="Times,serif" font-size="14.00">direct_phonetic_icons</text>
</g>
<!-- Phonetic&#45;&gt;Icon -->
<g id="edge12" class="edge">
<title>Phonetic&#45;&gt;Icon</title>
<path fill="none" stroke="#a6ca74" d="M513.87,-92.09C688.85,-92.95 1243.86,-100.39 1294.35,-160 1304.7,-172.21 1304.58,-183.7 1294.35,-196 1235.93,-266.25 968.82,-207.65 886.35,-247 879.25,-250.39 872.83,-255.84 867.45,-261.56"/>
<polygon fill="#a6ca74" stroke="#a6ca74" points="513.63,-92.09 503.65,-87.55 508.63,-92.07 503.63,-92.05 503.63,-92.05 503.63,-92.05 508.63,-92.07 503.61,-96.55 513.63,-92.09 513.63,-92.09"/>
<polygon fill="#a6ca74" stroke="#a6ca74" points="867.27,-261.76 857.36,-266.45 864.03,-265.57 860.78,-269.37 860.78,-269.37 860.78,-269.37 864.03,-265.57 864.2,-272.29 867.27,-261.76 867.27,-261.76"/>
<text text-anchor="middle" x="1370.35" y="-174.3" font-family="Times,serif" font-size="14.00">undirect_phonetic_icons</text>
</g>
<!-- Phonetic&#45;&gt;IconPhonetic -->
<g id="edge9" class="edge">
<title>Phonetic&#45;&gt;IconPhonetic</title>
<path fill="none" stroke="#13492f" d="M408.73,-92.79C350.18,-94.91 260.95,-102.24 239.35,-127 233.98,-133.17 232.42,-141.56 232.6,-149.72"/>
<polygon fill="#13492f" stroke="#13492f" points="408.93,-92.79 419.07,-96.96 413.93,-92.63 418.93,-92.47 418.93,-92.47 418.93,-92.47 413.93,-92.63 418.78,-87.97 408.93,-92.79 408.93,-92.79"/>
<polygon fill="#13492f" stroke="#13492f" points="232.61,-149.78 229.13,-160.18 233.11,-154.76 233.61,-159.73 233.61,-159.73 233.61,-159.73 233.11,-154.76 238.09,-159.28 232.61,-149.78 232.61,-149.78"/>
<text text-anchor="middle" x="301.35" y="-130.8" font-family="Times,serif" font-size="14.00">direct_icon_phonetics</text>
</g>
<!-- Phonetic&#45;&gt;IconPhonetic -->
<g id="edge11" class="edge">
<title>Phonetic&#45;&gt;IconPhonetic</title>
<path fill="none" stroke="#f930f8" d="M423.1,-108.58C411.16,-114.1 398.05,-120.5 386.35,-127 375.69,-132.93 374.47,-136.96 363.35,-142 341.99,-151.68 317.34,-159.27 295.61,-164.88"/>
<polygon fill="#f930f8" stroke="#f930f8" points="423.28,-108.5 434.25,-108.46 427.84,-106.43 432.39,-104.37 432.39,-104.37 432.39,-104.37 427.84,-106.43 430.53,-100.27 423.28,-108.5 423.28,-108.5"/>
<polygon fill="#f930f8" stroke="#f930f8" points="295.55,-164.89 284.76,-162.95 290.7,-166.1 285.85,-167.31 285.85,-167.31 285.85,-167.31 290.7,-166.1 286.94,-171.68 295.55,-164.89 295.55,-164.89"/>
<text text-anchor="middle" x="455.35" y="-130.8" font-family="Times,serif" font-size="14.00">undirect_icon_phonetics</text>
</g>
<!-- SyllableLetter -->
<g id="node7" class="node">
<title>SyllableLetter</title>
<ellipse fill="none" stroke="black" cx="461.35" cy="-18" rx="62.29" ry="18"/>
<text text-anchor="middle" x="461.35" y="-14.3" font-family="Times,serif" font-size="14.00">SyllableLetter</text>
</g>
<!-- Phonetic&#45;&gt;SyllableLetter -->
<g id="edge8" class="edge">
<title>Phonetic&#45;&gt;SyllableLetter</title>
<path fill="none" stroke="#2179d0" d="M461.35,-62.75C461.35,-57.28 461.35,-51.52 461.35,-46.05"/>
<polygon fill="#2179d0" stroke="#2179d0" points="461.35,-62.81 456.85,-72.81 461.35,-67.81 461.35,-72.81 461.35,-72.81 461.35,-72.81 461.35,-67.81 465.85,-72.81 461.35,-62.81 461.35,-62.81"/>
<polygon fill="#2179d0" stroke="#2179d0" points="461.35,-46.03 465.85,-36.03 461.35,-41.03 461.35,-36.03 461.35,-36.03 461.35,-36.03 461.35,-41.03 456.85,-36.03 461.35,-46.03 461.35,-46.03"/>
</g>
<!-- RebusReponse -->
<g id="node6" class="node">
<title>RebusReponse</title>
<ellipse fill="none" stroke="black" cx="960.35" cy="-286" rx="64.99" ry="18"/>
<text text-anchor="middle" x="960.35" y="-282.3" font-family="Times,serif" font-size="14.00">RebusReponse</text>
</g>
<!-- User -->
<g id="node8" class="node">
<title>User</title>
<ellipse fill="none" stroke="black" cx="1071.35" cy="-286" rx="27.9" ry="18"/>
<text text-anchor="middle" x="1071.35" y="-282.3" font-family="Times,serif" font-size="14.00">User</text>
</g>
</g>
</svg>
